<?xml version="1.0" encoding="UTF-8" standalone="no"?>
<!-- Created with Inkscape (http://www.inkscape.org/) -->

<svg
   xmlns:dc="http://purl.org/dc/elements/1.1/"
   xmlns:cc="http://creativecommons.org/ns#"
   xmlns:rdf="http://www.w3.org/1999/02/22-rdf-syntax-ns#"
   xmlns:svg="http://www.w3.org/2000/svg"
   xmlns="http://www.w3.org/2000/svg"
   xmlns:sodipodi="http://sodipodi.sourceforge.net/DTD/sodipodi-0.dtd"
   xmlns:inkscape="http://www.inkscape.org/namespaces/inkscape"
   width="500"
   height="100"
   viewBox="0 0 500 100"
   id="svg2"
   version="1.1"
   inkscape:version="0.91 r13725"
   sodipodi:docname="Header.svg">
  <defs
     id="defs4" />
  <sodipodi:namedview
     id="base"
     pagecolor="#ffffff"
     bordercolor="#666666"
     borderopacity="1.0"
     inkscape:pageopacity="0.0"
     inkscape:pageshadow="2"
     inkscape:zoom="1.4"
     inkscape:cx="233.66373"
     inkscape:cy="66.123592"
     inkscape:document-units="px"
     inkscape:current-layer="layer1"
     showgrid="false"
     units="px"
     width="500px"
     borderlayer="true"
     showguides="true"
     inkscape:guide-bbox="true"
     inkscape:window-width="1366"
     inkscape:window-height="715"
     inkscape:window-x="1352"
     inkscape:window-y="308"
     inkscape:window-maximized="1" />
  <metadata
     id="metadata7">
    <rdf:RDF>
      <cc:Work
         rdf:about="">
        <dc:format>image/svg+xml</dc:format>
        <dc:type
           rdf:resource="http://purl.org/dc/dcmitype/StillImage" />
        <dc:title></dc:title>
      </cc:Work>
    </rdf:RDF>
  </metadata>
  <g
     inkscape:label="Layer 1"
     inkscape:groupmode="layer"
     id="layer1"
     transform="translate(0,-952.3622)">
    <rect
       style="opacity:1;fill:#1abc9c;fill-opacity:1;fill-rule:nonzero;stroke:none;stroke-width:1;stroke-linecap:square;stroke-linejoin:round;stroke-miterlimit:4;stroke-dasharray:3, 1;stroke-dashoffset:0;stroke-opacity:1"
       id="rect4136"
       width="500"
       height="100"
       x="0"
       y="952.36218" />
    <g
       transform="matrix(1.4439334,0,0,1.4439334,-162.51676,860.09319)"
       style="font-style:normal;font-variant:normal;font-weight:bold;font-stretch:normal;font-size:45px;line-height:175%;font-family:sans-serif;-inkscape-font-specification:'sans-serif Bold';text-align:start;letter-spacing:0px;word-spacing:0px;text-anchor:start;opacity:1;fill:none;fill-opacity:1;stroke:#646464;stroke-width:0.83106327;stroke-linecap:butt;stroke-linejoin:miter;stroke-miterlimit:4;stroke-dasharray:none;stroke-opacity:1"
       id="flowRoot4156">
      <path
         d="m 337.00244,115.14514 -8.21777,0 0,-8.63526 8.21777,0 0,8.63526 z"
         style=""
         id="path4203" />
      <path
         d="m 374.94922,115.14514 -8.12988,0 -13.88672,-22.456056 0,22.456056 -7.73438,0 0,-32.717287 10.08545,0 11.93115,18.742677 0,-18.742677 7.73438,0 0,32.717287 z"
         style=""
         id="path4205" />
      <path
         d="m 407.00732,115.14514 -23.66455,0 0,-32.717287 23.66455,0 0,6.328125 -15.27099,0 0,5.646973 14.17236,0 0,6.328129 -14.17236,0 0,8.08593 15.27099,0 0,6.32813 z"
         style=""
         id="path4207" />
      <path
         d="m 439.70264,88.755978 -10.21729,0 0,26.389162 -8.4375,0 0,-26.389162 -10.21728,0 0,-6.328125 28.87207,0 0,6.328125 z"
         style=""
         id="path4209" />
    </g>
    <g
       transform="translate(-14.856422,893.03315)"
       style="font-style:normal;font-variant:normal;font-weight:bold;font-stretch:normal;font-size:12.5px;line-height:125%;font-family:sans-serif;-inkscape-font-specification:'sans-serif Bold';letter-spacing:0px;word-spacing:0px;fill:none;fill-opacity:1;stroke:#646464;stroke-width:1;stroke-linecap:butt;stroke-linejoin:miter;stroke-miterlimit:4;stroke-dasharray:none;stroke-opacity:1"
       id="flowRoot4164">
      <path
         d="m 60.007812,94.906693 -7.451171,0 0,-2.8125 7.451171,0 0,2.8125 z"
         style="font-style:normal;font-variant:normal;font-weight:bold;font-stretch:normal;font-size:20px;line-height:301.99999809%;font-family:sans-serif;-inkscape-font-specification:'sans-serif Bold';text-align:end;text-anchor:end;fill:none;stroke:#646464;stroke-width:1;stroke-miterlimit:4;stroke-dasharray:none;stroke-opacity:1"
         id="path4212" />
      <path
         d="m 76.453125,94.906693 -7.451172,0 0,-2.8125 7.451172,0 0,2.8125 z"
         style="font-style:normal;font-variant:normal;font-weight:bold;font-stretch:normal;font-size:20px;line-height:301.99999809%;font-family:sans-serif;-inkscape-font-specification:'sans-serif Bold';text-align:end;text-anchor:end;fill:none;stroke:#646464;stroke-width:1;stroke-miterlimit:4;stroke-dasharray:none;stroke-opacity:1"
         id="path4214" />
      <path
         d="m 93.318359,103.79341 -6.523437,0 0,-19.023436 6.523437,0 0,2.34375 -3.466797,0 0,14.335936 3.466797,0 0,2.34375 z"
         style="font-style:normal;font-variant:normal;font-weight:bold;font-stretch:normal;font-size:20px;line-height:301.99999809%;font-family:sans-serif;-inkscape-font-specification:'sans-serif Bold';text-align:end;text-anchor:end;fill:none;stroke:#646464;stroke-width:1;stroke-miterlimit:4;stroke-dasharray:none;stroke-opacity:1"
         id="path4216" />
      <path
         d="m 110.59375,94.906693 -7.45117,0 0,-2.8125 7.45117,0 0,2.8125 z"
         style="font-style:normal;font-variant:normal;font-weight:bold;font-stretch:normal;font-size:20px;line-height:301.99999809%;font-family:sans-serif;-inkscape-font-specification:'sans-serif Bold';text-align:end;text-anchor:end;fill:none;stroke:#646464;stroke-width:1;stroke-miterlimit:4;stroke-dasharray:none;stroke-opacity:1"
         id="path4218" />
      <path
         d="m 127.03906,94.906693 -7.45117,0 0,-2.8125 7.45117,0 0,2.8125 z"
         style="font-style:normal;font-variant:normal;font-weight:bold;font-stretch:normal;font-size:20px;line-height:301.99999809%;font-family:sans-serif;-inkscape-font-specification:'sans-serif Bold';text-align:end;text-anchor:end;fill:none;stroke:#646464;stroke-width:1;stroke-miterlimit:4;stroke-dasharray:none;stroke-opacity:1"
         id="path4220" />
      <path
         d="m 143.48437,94.906693 -7.45117,0 0,-2.8125 7.45117,0 0,2.8125 z"
         style="font-style:normal;font-variant:normal;font-weight:bold;font-stretch:normal;font-size:20px;line-height:301.99999809%;font-family:sans-serif;-inkscape-font-specification:'sans-serif Bold';text-align:end;text-anchor:end;fill:none;stroke:#646464;stroke-width:1;stroke-miterlimit:4;stroke-dasharray:none;stroke-opacity:1"
         id="path4222" />
      <path
         d="m 159.92969,94.906693 -7.45117,0 0,-2.8125 7.45117,0 0,2.8125 z"
         style="font-style:normal;font-variant:normal;font-weight:bold;font-stretch:normal;font-size:20px;line-height:301.99999809%;font-family:sans-serif;-inkscape-font-specification:'sans-serif Bold';text-align:end;text-anchor:end;fill:none;stroke:#646464;stroke-width:1;stroke-miterlimit:4;stroke-dasharray:none;stroke-opacity:1"
         id="path4224" />
      <path
         d="m 176.375,94.906693 -7.45117,0 0,-2.8125 7.45117,0 0,2.8125 z"
         style="font-style:normal;font-variant:normal;font-weight:bold;font-stretch:normal;font-size:20px;line-height:301.99999809%;font-family:sans-serif;-inkscape-font-specification:'sans-serif Bold';text-align:end;text-anchor:end;fill:none;stroke:#646464;stroke-width:1;stroke-miterlimit:4;stroke-dasharray:none;stroke-opacity:1"
         id="path4226" />
      <path
         d="m 199.64648,94.613724 -13.04687,5.419926 0,-2.802738 9.13086,-3.730469 -9.13086,-3.730469 0,-2.802734 13.04687,5.419922 0,2.226562 z"
         style="font-style:normal;font-variant:normal;font-weight:bold;font-stretch:normal;font-size:20px;line-height:301.99999809%;font-family:sans-serif;-inkscape-font-specification:'sans-serif Bold';text-align:end;text-anchor:end;fill:none;stroke:#646464;stroke-width:1;stroke-miterlimit:4;stroke-dasharray:none;stroke-opacity:1"
         id="path4228" />
      <path
         d="m 223.68945,94.809037 -5.20508,0 0,5.15625 -2.67578,0 0,-5.15625 -5.20507,0 0,-2.617188 5.20507,0 0,-5.15625 2.67578,0 0,5.15625 5.20508,0 0,2.617188 z"
         style="font-style:normal;font-variant:normal;font-weight:bold;font-stretch:normal;font-size:20px;line-height:301.99999809%;font-family:sans-serif;-inkscape-font-specification:'sans-serif Bold';text-align:end;text-anchor:end;fill:none;stroke:#646464;stroke-width:1;stroke-miterlimit:4;stroke-dasharray:none;stroke-opacity:1"
         id="path4230" />
      <path
         d="m 247.69336,100.03365 -13.04688,-5.419926 0,-2.226562 13.04688,-5.419922 0,2.802734 -9.13086,3.740235 9.13086,3.720703 0,2.802738 z"
         style="font-style:normal;font-variant:normal;font-weight:bold;font-stretch:normal;font-size:20px;line-height:301.99999809%;font-family:sans-serif;-inkscape-font-specification:'sans-serif Bold';text-align:end;text-anchor:end;fill:none;stroke:#646464;stroke-width:1;stroke-miterlimit:4;stroke-dasharray:none;stroke-opacity:1"
         id="path4232" />
      <path
         d="m 265.29102,103.79341 -6.52344,0 0,-2.34375 3.46679,0 0,-14.335936 -3.46679,0 0,-2.34375 6.52344,0 0,19.023436 z"
         style="font-style:normal;font-variant:normal;font-weight:bold;font-stretch:normal;font-size:20px;line-height:301.99999809%;font-family:sans-serif;-inkscape-font-specification:'sans-serif Bold';text-align:end;text-anchor:end;fill:none;stroke:#646464;stroke-width:1;stroke-miterlimit:4;stroke-dasharray:none;stroke-opacity:1"
         id="path4234" />
      <path
         d="m 289.88086,94.613724 -13.04688,5.419926 0,-2.802738 9.13086,-3.730469 -9.13086,-3.730469 0,-2.802734 13.04688,5.419922 0,2.226562 z"
         style="font-style:normal;font-variant:normal;font-weight:bold;font-stretch:normal;font-size:20px;line-height:301.99999809%;font-family:sans-serif;-inkscape-font-specification:'sans-serif Bold';text-align:end;text-anchor:end;fill:none;stroke:#646464;stroke-width:1;stroke-miterlimit:4;stroke-dasharray:none;stroke-opacity:1"
         id="path4236" />
      <path
         d="m 307.23437,94.906693 -7.45117,0 0,-2.8125 7.45117,0 0,2.8125 z"
         style="font-style:normal;font-variant:normal;font-weight:bold;font-stretch:normal;font-size:20px;line-height:301.99999809%;font-family:sans-serif;-inkscape-font-specification:'sans-serif Bold';text-align:end;text-anchor:end;fill:none;stroke:#646464;stroke-width:1;stroke-miterlimit:4;stroke-dasharray:none;stroke-opacity:1"
         id="path4238" />
      <path
         d="m 323.67969,94.906693 -7.45117,0 0,-2.8125 7.45117,0 0,2.8125 z"
         style="font-style:normal;font-variant:normal;font-weight:bold;font-stretch:normal;font-size:20px;line-height:301.99999809%;font-family:sans-serif;-inkscape-font-specification:'sans-serif Bold';text-align:end;text-anchor:end;fill:none;stroke:#646464;stroke-width:1;stroke-miterlimit:4;stroke-dasharray:none;stroke-opacity:1"
         id="path4240" />
    </g>
    <g
       style="font-style:normal;font-weight:normal;font-size:17.5px;line-height:125%;font-family:sans-serif;letter-spacing:0px;word-spacing:0px;fill:none;fill-opacity:1;stroke:#646464;stroke-width:1;stroke-linecap:butt;stroke-linejoin:miter;stroke-miterlimit:4;stroke-dasharray:none;stroke-opacity:1"
       id="text4190">
      <path
         d="m 45.389797,1017.9633 -7.451172,0 0,-2.8125 7.451172,0 0,2.8125 z"
         style="font-style:normal;font-variant:normal;font-weight:bold;font-stretch:normal;font-size:20px;font-family:sans-serif;-inkscape-font-specification:'sans-serif Bold';fill:none;stroke:#646464;stroke-width:1;stroke-miterlimit:4;stroke-dasharray:none;stroke-opacity:1"
         id="path4243" />
      <path
         d="m 61.83511,1017.9633 -7.451172,0 0,-2.8125 7.451172,0 0,2.8125 z"
         style="font-style:normal;font-variant:normal;font-weight:bold;font-stretch:normal;font-size:20px;font-family:sans-serif;-inkscape-font-specification:'sans-serif Bold';fill:none;stroke:#646464;stroke-width:1;stroke-miterlimit:4;stroke-dasharray:none;stroke-opacity:1"
         id="path4245" />
      <path
         d="m 78.700344,1026.85 -6.523437,0 0,-19.0234 6.523437,0 0,2.3437 -3.466797,0 0,14.336 3.466797,0 0,2.3437 z"
         style="font-style:normal;font-variant:normal;font-weight:bold;font-stretch:normal;font-size:20px;font-family:sans-serif;-inkscape-font-specification:'sans-serif Bold';fill:none;stroke:#646464;stroke-width:1;stroke-miterlimit:4;stroke-dasharray:none;stroke-opacity:1"
         id="path4247" />
      <path
         d="m 95.975735,1017.9633 -7.451172,0 0,-2.8125 7.451172,0 0,2.8125 z"
         style="font-style:normal;font-variant:normal;font-weight:bold;font-stretch:normal;font-size:20px;font-family:sans-serif;-inkscape-font-specification:'sans-serif Bold';fill:none;stroke:#646464;stroke-width:1;stroke-miterlimit:4;stroke-dasharray:none;stroke-opacity:1"
         id="path4249" />
      <path
         d="m 112.42105,1017.9633 -7.45117,0 0,-2.8125 7.45117,0 0,2.8125 z"
         style="font-style:normal;font-variant:normal;font-weight:bold;font-stretch:normal;font-size:20px;font-family:sans-serif;-inkscape-font-specification:'sans-serif Bold';fill:none;stroke:#646464;stroke-width:1;stroke-miterlimit:4;stroke-dasharray:none;stroke-opacity:1"
         id="path4251" />
      <path
         d="m 128.86636,1017.9633 -7.45117,0 0,-2.8125 7.45117,0 0,2.8125 z"
         style="font-style:normal;font-variant:normal;font-weight:bold;font-stretch:normal;font-size:20px;font-family:sans-serif;-inkscape-font-specification:'sans-serif Bold';fill:none;stroke:#646464;stroke-width:1;stroke-miterlimit:4;stroke-dasharray:none;stroke-opacity:1"
         id="path4253" />
      <path
         d="m 145.31167,1017.9633 -7.45117,0 0,-2.8125 7.45117,0 0,2.8125 z"
         style="font-style:normal;font-variant:normal;font-weight:bold;font-stretch:normal;font-size:20px;font-family:sans-serif;-inkscape-font-specification:'sans-serif Bold';fill:none;stroke:#646464;stroke-width:1;stroke-miterlimit:4;stroke-dasharray:none;stroke-opacity:1"
         id="path4255" />
      <path
         d="m 161.75698,1017.9633 -7.45117,0 0,-2.8125 7.45117,0 0,2.8125 z"
         style="font-style:normal;font-variant:normal;font-weight:bold;font-stretch:normal;font-size:20px;font-family:sans-serif;-inkscape-font-specification:'sans-serif Bold';fill:none;stroke:#646464;stroke-width:1;stroke-miterlimit:4;stroke-dasharray:none;stroke-opacity:1"
         id="path4257" />
      <path
         d="m 185.02847,1017.6703 -13.04688,5.42 0,-2.8028 9.13086,-3.7304 -9.13086,-3.7305 0,-2.8027 13.04688,5.4199 0,2.2265 z"
         style="font-style:normal;font-variant:normal;font-weight:bold;font-stretch:normal;font-size:20px;font-family:sans-serif;-inkscape-font-specification:'sans-serif Bold';fill:none;stroke:#646464;stroke-width:1;stroke-miterlimit:4;stroke-dasharray:none;stroke-opacity:1"
         id="path4259" />
      <path
         d="m 209.07144,1017.8657 -5.20508,0 0,5.1562 -2.67578,0 0,-5.1562 -5.20508,0 0,-2.6172 5.20508,0 0,-5.1563 2.67578,0 0,5.1563 5.20508,0 0,2.6172 z"
         style="font-style:normal;font-variant:normal;font-weight:bold;font-stretch:normal;font-size:20px;font-family:sans-serif;-inkscape-font-specification:'sans-serif Bold';fill:none;stroke:#646464;stroke-width:1;stroke-miterlimit:4;stroke-dasharray:none;stroke-opacity:1"
         id="path4261" />
      <path
         d="m 233.07534,1023.0903 -13.04687,-5.42 0,-2.2265 13.04687,-5.4199 0,2.8027 -9.13086,3.7402 9.13086,3.7207 0,2.8028 z"
         style="font-style:normal;font-variant:normal;font-weight:bold;font-stretch:normal;font-size:20px;font-family:sans-serif;-inkscape-font-specification:'sans-serif Bold';fill:none;stroke:#646464;stroke-width:1;stroke-miterlimit:4;stroke-dasharray:none;stroke-opacity:1"
         id="path4263" />
      <path
         d="m 250.673,1026.85 -6.52344,0 0,-2.3437 3.4668,0 0,-14.336 -3.4668,0 0,-2.3437 6.52344,0 0,19.0234 z"
         style="font-style:normal;font-variant:normal;font-weight:bold;font-stretch:normal;font-size:20px;font-family:sans-serif;-inkscape-font-specification:'sans-serif Bold';fill:none;stroke:#646464;stroke-width:1;stroke-miterlimit:4;stroke-dasharray:none;stroke-opacity:1"
         id="path4265" />
      <path
         d="m 275.26284,1017.6703 -13.04687,5.42 0,-2.8028 9.13086,-3.7304 -9.13086,-3.7305 0,-2.8027 13.04687,5.4199 0,2.2265 z"
         style="font-style:normal;font-variant:normal;font-weight:bold;font-stretch:normal;font-size:20px;font-family:sans-serif;-inkscape-font-specification:'sans-serif Bold';fill:none;stroke:#646464;stroke-width:1;stroke-miterlimit:4;stroke-dasharray:none;stroke-opacity:1"
         id="path4267" />
      <path
         d="m 289.53042,1023.0219 -3.65234,0 0,-3.8379 3.65234,0 0,3.8379 z"
         style="font-style:normal;font-variant:normal;font-weight:bold;font-stretch:normal;font-size:20px;font-family:sans-serif;-inkscape-font-specification:'sans-serif Bold';fill:none;stroke:#646464;stroke-width:1;stroke-miterlimit:4;stroke-dasharray:none;stroke-opacity:1"
         id="path4269" />
    </g>
  </g>
</svg>
